<svg width="400" height="74" viewBox="0 0 400 74" fill="none" xmlns="http://www.w3.org/2000/svg">
<path d="M395.209 29.6811C395.379 28.356 395.533 27.2336 395.688 26.0956C397.141 26.0956 398.532 26.0956 400 26.0956C399.876 27.1869 399.768 28.2313 399.645 29.2758C398.887 35.558 398.145 41.8403 397.326 48.1226C396.971 50.8974 396.677 53.719 395.904 56.3847C393.74 63.7893 386.77 66.5797 381.082 65.9718C379.397 65.8003 377.805 65.3638 376.306 64.5376C372.736 62.5578 371.283 58.7074 371.515 55.0908C371.561 54.4672 371.808 54.3114 372.38 54.3269C373.509 54.3581 374.637 54.3425 375.765 54.3425C375.858 55.2934 375.858 56.182 376.043 57.0238C376.646 59.8765 378.825 61.7316 381.7 62.0746C388.068 62.8384 391.453 58.5671 392.303 53.5319C392.566 52.0042 392.72 50.4453 392.921 48.902C392.937 48.7306 392.921 48.5591 392.921 48.2473C392.597 48.5435 392.38 48.7462 392.164 48.9644C388.934 52.0042 385.147 53.1578 380.85 52.1601C376.801 51.2248 374.127 48.637 373.277 44.5216C372.148 39.0811 373.199 34.0147 376.986 29.8681C380.51 26.0021 384.992 24.6459 390.124 25.8774C392.009 26.3295 393.524 27.4519 394.714 28.9952C394.807 29.1822 394.946 29.3537 395.209 29.6811ZM377.326 40.64C377.342 40.9206 377.373 41.4194 377.403 41.9027C377.666 45.3322 379.907 47.9511 383.091 48.4656C386.198 48.9644 388.918 48.107 391.128 45.831C393.632 43.2433 394.652 40.0476 394.405 36.5089C394.142 32.6273 391.685 29.8993 388.284 29.4472C384.992 29.0107 382.241 30.102 380.077 32.5962C378.114 34.8254 377.419 37.5222 377.326 40.64Z" fill="#FE2A00"/>
<path d="M307.913 48.3097C307.759 49.4632 307.62 50.5389 307.481 51.6613C306.043 51.6613 304.621 51.6613 303.138 51.6613C304.977 36.6337 306.801 21.6372 308.624 6.60965C310.077 6.60965 311.453 6.60965 312.968 6.60965C312.04 14.2326 311.113 21.8243 310.17 29.6499C310.541 29.3069 310.742 29.1043 310.958 28.9016C314.219 25.9086 318.006 24.8174 322.303 25.7683C326.383 26.6568 329.382 29.9772 330.046 34.5759C330.865 40.2659 329.274 45.2543 324.992 49.1515C321.607 52.2225 317.573 53.1734 313.138 52.051C311.252 51.5677 309.737 50.4765 308.532 48.9644C308.408 48.8085 308.284 48.637 308.145 48.4811C308.13 48.4344 308.083 48.4188 307.913 48.3097ZM325.827 37.3663C325.781 36.961 325.75 36.4154 325.688 35.8854C325.317 32.6897 323.122 30.1955 320.062 29.5252C317.867 29.0419 315.827 29.5564 313.926 30.7099C310.124 33.0171 307.991 38.0211 308.887 42.4171C309.474 45.2699 310.943 47.4055 313.802 48.2473C317.002 49.1826 319.876 48.4188 322.287 46.1272C324.729 43.7889 325.688 40.8115 325.827 37.3663Z" fill="#FE2A00"/>
<path d="M370.325 37.1793C370.294 45.9402 363.23 52.7836 354.544 52.5031C348.856 52.316 344.467 48.7929 343.447 43.6019C341.886 35.7451 346.971 27.7636 354.714 25.9086C357.233 25.3006 359.768 25.2694 362.272 25.9865C367.326 27.4207 370.355 31.6608 370.325 37.1793ZM347.666 39.7358C347.558 44.2878 349.675 47.312 353.199 48.2785C355.193 48.8241 357.172 48.6682 359.104 47.9355C364.467 45.8934 366.321 40.4217 365.75 36.166C365.255 32.4403 363.184 30.2267 359.706 29.5096C357.62 29.0731 355.595 29.3537 353.694 30.289C349.567 32.3467 347.883 35.9166 347.666 39.7358Z" fill="#FE2A00"/>
<path d="M338.47 6.60965C339.938 6.60965 341.329 6.60965 342.813 6.60965C340.974 21.6528 339.15 36.6337 337.311 51.6769C335.873 51.6769 334.467 51.6769 332.968 51.6769C334.807 36.6493 336.631 21.6372 338.47 6.60965Z" fill="#FE2A00"/>
<path d="M29.7682 45.0672L0 67.1565L22.0402 57.1173L22.5502 57.5226L23.3694 58.1618L24.1113 58.6762L24.6986 59.0348L25.3014 59.3777L25.966 59.7207L26.5224 59.9857L27.2179 60.2975L28.4544 60.7963L29.2581 61.0613L29.9845 61.2795L30.8192 61.5134L31.7002 61.716L32.7666 61.9343L34.4204 62.2149L35.4096 62.3396L36.4297 62.4331L39.1963 62.5267L41.9474 62.4799L43.8176 62.324L45.7805 62.0746L48.3926 61.5913L49.7682 61.264L51.7002 60.7028L52.9366 60.2663L54.1267 59.783L55.3323 59.2218L56.677 58.5203L57.7434 57.8812L58.4544 57.4291L58.9026 57.1173L59.4745 56.6964L59.9536 56.3067L60.51 55.8546L61.0201 55.4182L61.3447 55.0908L61.7311 54.7011L62.1329 54.2958L62.5657 53.8125L62.8594 53.4696L63.1839 53.0798L63.5085 52.6434L63.9722 51.973L64.6213 50.9598L64.9768 50.383L65.2087 49.9153L65.425 49.4632L65.6105 49.0891L65.9042 48.4188L66.1515 47.8264L66.3988 47.0782L66.6306 46.3923L66.8161 45.6908L66.9706 45.0516L67.1561 44.2254L67.3261 43.2433L67.4189 42.3392L67.4652 40.5153L67.3879 39.6423L67.2179 38.629L67.0943 37.9431L66.8934 37.2572L66.7079 36.696L66.4915 36.1504L66.2288 35.558L65.8578 34.841L65.5023 34.2486L65.1932 33.8121L64.8686 33.36L64.3277 32.7053L63.8485 32.1909L63.3076 31.6297L62.7666 31.1152L62.2566 30.6943L61.762 30.3202L61.221 29.9149L60.6028 29.494L60.0773 29.151L59.5209 28.8237L58.7017 28.356L58.0835 28.0131L57.5425 27.748L57.0943 27.5142L56.2906 27.1557L54.7913 26.5321L41.4219 36.4466L42.2875 36.774L43.0603 37.0701L44.0031 37.4131L44.7141 37.6781L45.4096 37.9587L45.9351 38.177L46.4297 38.3796L47.2179 38.7537L47.8053 39.0655L48.3617 39.3773L49.1499 39.8605L49.4745 40.0788L49.7836 40.3282L50.1391 40.6244L50.4328 40.9206L50.6182 41.17L50.8346 41.4818L51.0201 41.8091L51.1283 42.1053L51.2828 42.5886L51.3447 42.9315L51.391 43.4927V44.0539L51.3292 44.6151L51.221 45.1296L51.0356 45.8934L50.8501 46.4078L50.6028 46.9534L50.3864 47.3432L50.2009 47.6238L50 47.8732L49.7063 48.2006L49.4745 48.45L49.2427 48.6682L48.7944 49.0735L48.4699 49.3074L48.1144 49.5256L47.7589 49.7283L47.4498 49.8997L46.9397 50.1336L46.507 50.2894L46.0124 50.4609L45.5796 50.57L44.8532 50.7415L44.374 50.8351L43.6476 50.9442L42.9366 50.9754L41.2674 50.9909L40.0927 50.913C40.0927 50.913 39.5054 50.8662 39.49 50.8662C39.4745 50.8662 38.7944 50.7571 38.7944 50.7571L38.068 50.6168L37.3416 50.4609L36.8934 50.3362L36.3215 50.1491L36.0587 50.04L35.6878 49.853L35.3323 49.6659L35.0077 49.4788L34.5595 49.1826L34.204 48.902L33.7713 48.5903L33.524 48.372L33.1994 48.0914L32.8748 47.7952L32.3648 47.3432L31.8547 46.8755L31.1747 46.252L30.5255 45.6908L29.7682 45.0672Z" fill="#FE2A00"/>
<path d="M15.7342 52.5031L34.8068 38.3796L15.8269 43.2433L15.7342 52.5031Z" fill="#FE2A00"/>
<path d="M64.3586 19.4548L82.5811 5.95492L73.4621 19.4704L64.3586 19.4548Z" fill="#FE2A00"/>
<path d="M38.779 35.4021L52.2102 25.4721L51.0819 25.098L50.3091 24.8641L49.5209 24.5991L48.8717 24.3497L48.1453 24.0535L47.4189 23.7573L46.8006 23.4923L46.0742 23.1338L45.425 22.8064L45.0077 22.6038L44.4668 22.292L43.7867 21.8555L43.2767 21.4969L42.9366 21.1852L42.7048 20.9513L42.442 20.6552L42.1947 20.3434L41.9474 19.9225L41.762 19.5016L41.592 18.9248V17.8336L41.6383 17.553L41.7311 17.2256L41.8393 16.9294L42.0556 16.4462L42.272 16.0409L42.5966 15.4953L42.9057 15.0744L43.2921 14.6379L43.7713 14.2014L44.3122 13.7649L44.8068 13.4375L45.5178 13.0478L46.0896 12.7672L46.7852 12.5022L47.527 12.2684L48.3462 12.0657L49.2581 11.9098L50.1236 11.8007L51.4219 11.7851H52.2875L52.983 11.8475L53.7094 11.9722L54.3895 12.1437L54.8686 12.2996L55.3323 12.5022L55.796 12.7516L56.1206 12.9543L56.3679 13.1414L56.6924 13.4375L57.0479 13.7961L57.5116 14.3729L58.0216 15.012L58.5935 15.8538L58.9026 16.3994L59.289 17.1009L59.6445 17.8803L59.9691 18.6598L60.2937 19.6419L61.2519 18.8936L63.4621 17.2724L65.4405 15.7914L67.7743 14.0767L70.0464 12.3931L73.1839 10.0548L73.1066 9.63387L72.9366 9.21298L72.6893 8.72972L72.4575 8.29324L72.1484 7.73204L71.9011 7.31114L71.592 6.85907L71.221 6.37582L70.8192 5.89256L70.3864 5.40931L69.9227 4.94165L69.3354 4.42722L68.7944 3.99073L68.3617 3.67896L67.7125 3.24247L67.1561 2.89952L66.5842 2.60333L65.9969 2.29155L65.3632 1.99537L64.6368 1.68359L63.5703 1.30946L62.5193 0.997683C62.5193 0.997683 61.7002 0.795028 61.6847 0.795028C61.6692 0.795028 60.7882 0.592374 60.7882 0.592374L59.66 0.374131L58.4853 0.202654L57.3879 0.109122L55.6569 0H53.323L51.1283 0.12471L49.2581 0.327365L47.527 0.592374L46.0587 0.872972L44.5595 1.23151L43.3539 1.55888L42.0711 1.9486L41.1283 2.27596L40.1391 2.66568L39.0108 3.13335L38.068 3.56983L37.0943 4.06868L36.0896 4.62987L35.5641 4.94165L34.8686 5.37813L34.0185 5.93933L33.4621 6.34464L32.9521 6.73436L32.5348 7.07731L31.7774 7.71645L31.2828 8.19971L30.6801 8.80767L29.8918 9.69623L29.3199 10.4133L28.6244 11.3954L28.2998 11.9098L27.9598 12.4866L27.6043 13.1414L27.0943 14.2482L26.7079 15.2147L26.306 16.4462L26.0587 17.4439L25.7187 19.408L25.6569 20.8734L25.7187 22.2608L25.9042 23.43L26.0896 24.2094L26.476 25.363L26.8934 26.2983L27.4343 27.2492L28.0062 28.0754L28.5471 28.7301L29.5981 29.8993L30.3091 30.5384L30.9583 31.0529L31.5301 31.505L32.1793 31.9414L33.1376 32.565L34.034 33.0794L34.8841 33.5471L35.9351 34.0927L36.9397 34.5604L37.8671 34.9813L38.779 35.4021Z" fill="#FE2A00"/>
<path d="M93.2767 27.6233L94.5131 20.546L84.7913 20.5616L83.6012 27.6389H80.2164L79.0726 34.3109L82.4111 34.2953L79.0881 53.2357H88.7944L92.1175 34.2642L97.2488 34.2798L98.439 27.6233H93.2767Z" fill="white"/>
<path d="M126.646 35.8075L126.352 34.4512L126.012 33.4535L125.549 32.3779L124.992 31.3802L124.482 30.6008L123.725 29.6187L122.998 28.9016L122.241 28.3092L121.097 27.7325L120.015 27.3583L118.918 27.0777L117.434 26.8439L115.58 26.7348L113.292 26.7504L112.396 26.7971L111.283 26.953L109.845 27.2336L108.563 27.6233L107.79 27.9351L106.893 28.3404L106.028 28.8081L105.255 29.2913L104.606 29.759L103.709 30.4605L102.813 31.3023L101.978 32.2376L101.345 33.0015L100.85 33.7186L100.479 34.2953L100 35.0748L99.5827 35.901L99.0881 37.0701L98.779 37.9275L98.4699 39.0032L98.2071 40.2035L98.0216 41.3415L97.898 42.6198V44.4436L97.9753 45.4102L98.0989 46.2052L98.2844 46.9067L98.4699 47.4523L98.7017 48.0447L98.9954 48.6214L99.3663 49.2606L99.9691 50.0556L100.417 50.5389L100.927 51.0377L101.53 51.5365L102.071 51.9419L102.519 52.238L103.199 52.6434L104.034 53.0487L104.807 53.3604L105.564 53.6099L106.167 53.7813L106.893 53.9372L107.635 54.0619L108.717 54.1711L109.954 54.1866L111.314 54.1711L112.566 54.0775L114.127 53.906L114.961 53.7502L115.873 53.5319L116.569 53.3293L117.403 53.0487L118.068 52.7837L118.686 52.4875L119.536 52.0198L120.046 51.7236L120.603 51.3495L121.082 50.9909L121.561 50.6168L122.133 50.1336L122.535 49.7438L123.091 49.167L123.416 48.7773L123.849 48.2473L124.08 47.9355L124.359 47.5614L124.776 46.9223L124.992 46.5793L125.24 46.1428L125.456 45.7687L125.595 45.5037H116.244L116.167 45.6908L115.935 46.0805L115.719 46.4234L115.44 46.782L115.255 46.969L115.008 47.2185L114.56 47.5614L114.204 47.8108L113.709 48.0602L113.091 48.2941L112.457 48.4811L111.793 48.6059L111.036 48.6682L110.247 48.6059L109.645 48.4811L109.227 48.3564L108.748 48.1226L108.485 47.9511L108.161 47.6705L107.898 47.3743L107.651 47.047L107.465 46.7196L107.233 46.2675L107.063 45.8466L106.893 45.3166L106.754 44.5684V43.6174L106.909 42.5106H126.291L126.646 40.0476L126.739 38.7693V36.9922L126.646 35.8075ZM117.883 37.4755L108.099 37.4599H108.068L108.192 36.9298L108.47 36.1504L108.748 35.5736L109.304 34.7474L109.923 34.0615L110.541 33.5003L111.175 33.0638L111.855 32.7053L112.798 32.3935L113.864 32.2688L114.745 32.3623L115.533 32.5806L116.043 32.83L116.507 33.1574L116.924 33.5938L117.249 34.1083L117.481 34.5759C117.481 34.5759 117.682 35.1839 117.713 35.2463C117.743 35.3086 117.79 35.6048 117.79 35.6048L117.883 36.4466V37.4755Z" fill="white"/>
<path d="M150.927 27.0777H148.764L148.022 27.2024L146.862 27.4986L145.811 27.8883L144.822 28.4184L144.049 28.886L143.586 29.229L142.38 30.2578L142.828 27.6233L133.478 27.6389L129.042 53.2513L138.733 53.2201L140.232 44.5684L140.51 42.8692L140.835 41.3259L141.097 40.375L141.499 39.5176L142.102 38.5199L142.767 37.6313L143.508 36.8987L144.266 36.2907L144.915 35.8542L145.842 35.4333L146.862 35.1527L147.697 35.0124L148.717 34.9968L149.552 35.0592L150.077 35.1995L150.541 35.4177H151.036L152.488 27.2648L150.927 27.0777Z" fill="white"/>
<path d="M183.138 35.4957L182.952 34.6383L182.72 33.8433L182.427 33.0482L182.102 32.3935L181.716 31.692L181.36 31.1464L180.989 30.632L180.402 29.9617L179.861 29.4316L179.444 29.0887L178.81 28.6678L178.13 28.2469L177.403 27.9039L176.275 27.4675L175.363 27.218L174.003 26.9374L172.751 26.7815L171.932 26.7192H170.433H170.371H170.124H170.108H170.031L167.991 26.7348L166.646 26.8595L165.394 27.0466L163.957 27.3739L162.442 27.826L161.005 28.434L159.923 29.0107L159.181 29.4784L158.393 30.0552L157.759 30.5852L156.909 31.3646L156.105 32.2064L155.595 32.83L154.884 33.7341L154.405 34.4512L153.926 35.2463L153.617 35.8542L153.308 36.4778L152.952 37.3352L152.72 38.0522L152.535 38.6758L152.287 39.5799L152.117 40.4997L152.009 41.3415L151.947 41.9494V44.3657L152.133 45.6596L152.38 46.6417L152.736 47.6705L153.045 48.3408L153.354 48.8865L153.833 49.6347L154.266 50.2115L154.699 50.7103L155.24 51.2404L156.399 52.1601L157.156 52.5966L157.883 52.9395L158.238 53.0954L158.918 53.3448L159.876 53.641L160.649 53.8281L161.36 53.9528L162.38 54.0931L163.586 54.2022H165.441L167.264 54.1399L168.578 54.0152L170.17 53.7813L170.989 53.5943L171.917 53.3448L172.813 53.0331L173.601 52.7369L174.498 52.316L175.1 52.0042L175.811 51.5677L176.492 51.1312L177.141 50.6324L178.006 49.8685L178.563 49.3229L179.165 48.6682L179.645 48.107L180.093 47.5614L180.495 46.9846L180.881 46.4078L181.19 45.8934L181.7 44.9581L182.009 44.3189L182.272 43.711L182.55 42.9159L182.751 42.2456L182.998 41.3571L183.184 40.4841L183.354 39.159L183.416 38.3017V37.2104L183.354 36.3687L183.138 35.4957ZM173.199 39.1902L173.076 40.2347L172.89 41.1544L172.767 41.6533L172.535 42.4639L172.287 43.0407L172.04 43.5863L171.855 43.976L171.36 44.7866L171.066 45.1451L170.526 45.7687L170 46.2831L169.351 46.7664L168.872 47.0314L168.377 47.234L167.774 47.3899L167.048 47.5146H165.827L165.116 47.3899C165.116 47.3899 164.73 47.2808 164.714 47.2808C164.699 47.2808 164.297 47.1093 164.297 47.1093L163.895 46.8755L163.509 46.5481L163.215 46.2208C163.215 46.2208 163.014 45.9246 162.998 45.8934C162.983 45.8622 162.628 45.301 162.628 45.301L162.488 45.0048L162.257 44.3345L162.133 43.7889L162.009 42.6509L162.071 41.4818L162.195 40.4529L162.38 39.6111L162.55 38.9252L162.782 38.2393L162.983 37.7561L163.107 37.5222L163.416 36.8987L163.648 36.509L163.833 36.2284L164.034 35.9322L164.297 35.5892L164.606 35.2307L164.93 34.9189L165.286 34.5915L165.611 34.3577L165.935 34.155L166.337 33.9524L166.662 33.8121L167.202 33.625L167.728 33.4847L168.454 33.36H168.655H169.134L169.536 33.4068L169.892 33.4691L170.556 33.6562L171.159 33.9524L171.592 34.2642L172.164 34.8254L172.365 35.1371L172.643 35.636L172.921 36.2907L173.076 36.8831L173.215 37.9743V39.1902H173.199Z" fill="white"/>
<path d="M185.394 53.2825L195.116 53.2513L199.552 27.6233H189.892L185.394 53.2825Z" fill="white"/>
<path d="M200.85 17.7089L200.634 17.3036L200.433 16.9918L200.108 16.5865L199.675 16.1968L199.243 15.9006L198.764 15.6511L198.238 15.4797L197.666 15.3861H195.951L195.301 15.5108L194.714 15.7135L194.142 15.9941L193.632 16.2747L193.184 16.6021L192.828 16.9138L192.396 17.3347L192.04 17.74L191.793 18.0986L191.561 18.4727L191.329 18.956L191.113 19.5016L191.005 20.016L190.881 20.6863V21.2163L190.958 21.6528L191.097 22.2296L191.298 22.7908L191.515 23.2117L191.839 23.6794L192.179 24.0535L192.55 24.3809L192.968 24.6147L193.385 24.8018L193.988 24.9421L194.637 25.02H195.116L195.765 24.9888L196.275 24.9421L196.847 24.8174L197.388 24.6303L197.944 24.3653L198.47 24.0379L198.995 23.6482L199.505 23.1961L199.923 22.6661L200.34 22.0737L200.618 21.5281L200.85 20.9513L201.005 20.4525L201.066 19.8134L201.082 18.5974L200.989 18.0986L200.85 17.7089Z" fill="white"/>
<path d="M226.322 14.2326L223.632 29.6811L223.462 29.5096L223.045 29.0263L222.473 28.4963L222.056 28.1378L221.546 27.8104L220.896 27.4519L220.386 27.2492L219.598 27.0154L218.516 26.7971L217.543 26.7036H216.321L215.271 26.7348L214.637 26.7815L213.679 26.9218L213.184 26.9998L212.488 27.1713L211.716 27.4207L211.066 27.6701L210.433 27.9507L209.753 28.3092L209.274 28.5898L208.393 29.1978L207.527 29.8837L206.801 30.5696L206.043 31.3491L205.425 32.1285L204.714 33.095L204.343 33.7341L203.818 34.6071L203.339 35.6204L202.906 36.6648L202.581 37.5534L202.349 38.3952L202.148 39.1279L201.932 40.1256L201.777 41.2324L201.638 42.3236L201.561 43.4148V44.3813L201.623 45.2854L201.716 46.0805L201.808 46.4858L201.901 46.8911L202.056 47.5146L202.195 47.9667L202.442 48.6059L202.674 49.0735L202.983 49.6347L203.261 50.0244L203.601 50.5077L204.019 50.9754L204.328 51.3027L204.59 51.5833L204.93 51.8951L205.41 52.2848L205.889 52.6278L206.383 52.924L206.893 53.2045L207.403 53.454L208.037 53.6878L208.532 53.8437L209.011 53.9684L209.799 54.0931L210.433 54.1711H211.808L213.091 54.1243L213.756 54.0463L214.405 53.9372L215.1 53.7657L215.688 53.5787L216.151 53.4228L216.662 53.2045L217.218 52.9395L217.805 52.6434L218.284 52.3783L218.779 52.051L219.212 51.7548L219.845 51.2248L220.247 50.8351L219.861 53.2981L229.196 53.3137L236.028 14.2793L226.322 14.2326ZM222.535 40.11L222.427 40.7647L222.257 41.4506L221.978 42.2456L221.777 42.7133L221.484 43.2433L221.206 43.6798L220.819 44.163L220.495 44.5684L220.124 44.9425L219.799 45.2231L219.134 45.6752L218.563 46.0025L217.96 46.2519L217.388 46.4234L216.832 46.517L216.538 46.5481H215.842L215.255 46.4858L214.776 46.3922L214.343 46.2675L213.895 46.0649L213.601 45.8778L213.339 45.6752L212.983 45.3166L212.674 44.8801L212.396 44.4125L212.148 43.8825L211.994 43.3057L211.87 42.5262L211.824 41.6533L211.886 40.6867L212.009 40.0476L212.21 39.3617L212.349 38.8629L212.597 38.3017L212.921 37.6781L213.215 37.1949L213.431 36.8987L213.849 36.431L214.173 36.0881L214.714 35.558L215.224 35.1527L215.703 34.8877L216.368 34.6539L217.156 34.4512L217.96 34.3421L218.594 34.3265L219.181 34.3889L219.722 34.5292L220.232 34.7162L220.649 34.9189L221.036 35.1995L221.345 35.4801C221.345 35.4801 221.669 35.8542 221.685 35.8542C221.7 35.8542 221.886 36.1348 221.886 36.1348C221.886 36.1348 222.133 36.5401 222.133 36.5557C222.133 36.5713 222.257 36.8207 222.257 36.8207C222.257 36.8207 222.427 37.3196 222.427 37.3663C222.427 37.4131 222.519 37.8808 222.519 37.8964L222.581 38.2549L222.628 39.2214L222.535 40.11Z" fill="white"/>
<path d="M235.178 53.2825L244.9 53.2513L249.366 27.6077L239.675 27.6389L235.178 53.2825Z" fill="white"/>
<path d="M250.881 18.5195L250.804 18.2077L250.696 17.8336L250.541 17.5062L250.34 17.1321L250.139 16.8671L249.815 16.4774L249.428 16.1344L248.964 15.8382L248.501 15.62L247.975 15.4641L247.187 15.3705L246.213 15.3394L245.611 15.4017L244.977 15.542L244.451 15.7291L243.957 15.9785L243.462 16.2435L243.091 16.5241L242.566 16.945L242.04 17.475L241.716 17.9115L241.437 18.348L241.144 18.9092L240.927 19.4548L240.788 20.0004L240.711 20.4525L240.68 21.0605L240.742 21.5905L240.881 22.292L241.036 22.7129L241.206 23.0246L241.53 23.5391L241.808 23.8664L242.148 24.2094L242.488 24.4588L242.968 24.7082L243.369 24.8641L243.864 24.9732L244.374 25.02H245.502L246.167 24.9421L246.862 24.7706L247.311 24.5991L247.743 24.3809L248.161 24.1315L248.563 23.8509L249.011 23.4455L249.351 23.1338L249.629 22.822L249.861 22.4946L250.139 22.0737L250.417 21.5749L250.572 21.2319L250.726 20.7643L250.835 20.3122L250.912 19.751V19.0651L250.881 18.5195Z" fill="white"/>
<path d="M294.699 27.6233L286.723 40.8115L282.272 27.6545L271.236 27.6389L265.703 27.6233L266.182 24.8953L266.399 23.8041L266.6 23.1182L266.847 22.5102L267.125 21.9802L267.465 21.5125L267.883 21.0916L268.269 20.7799L268.671 20.5772L268.934 20.4837L269.227 20.4057H269.505H269.969L270.294 20.4681L270.742 20.5928L271.267 20.7643L271.901 21.0605H272.396L273.601 14.2482L272.55 14.0611L271.314 13.9052L270.247 13.7649L269.274 13.7025L267.048 13.7181L265.688 13.8428L264.08 14.1702C264.08 14.1702 263.385 14.3885 263.369 14.3885C263.354 14.3885 262.566 14.7158 262.566 14.7158L261.747 15.1679L260.943 15.7135L260.263 16.2591L259.475 16.9918L258.918 17.6153L258.424 18.3168L257.96 19.1274L257.62 19.9069L257.28 20.8734L257.017 21.9802L256.723 23.6014L256.028 27.6389L252.674 27.6545L251.53 34.3577L254.807 34.3421L251.53 53.3137L261.252 53.2981L264.56 34.2953L270.062 34.3109L271.206 27.9819V28.0287H271.267L279.768 49.6191L269.428 64.4597L279.876 64.4285L304.699 27.6857L294.699 27.6233Z" fill="white"/>
<path d="M83.5703 59.8765L83.5549 59.861C82.9057 59.5648 82.1793 59.4089 81.4219 59.4089C79.8145 59.4089 78.408 59.9857 77.2643 61.1392C76.0587 62.3396 75.4405 63.8205 75.4405 65.5353C75.4405 66.9694 75.9196 68.2165 76.8779 69.2142C77.7898 70.1807 78.9644 70.664 80.3709 70.664C81.1592 70.664 81.8547 70.5393 82.4266 70.2899C82.9366 70.0716 83.4312 69.7443 83.9258 69.3078L84.034 69.2142L84.2813 67.0162L83.4776 67.858C83.0603 68.2945 82.5811 68.6374 82.0711 68.8869C81.5456 69.1363 80.9737 69.2766 80.3709 69.2766C79.3663 69.2766 78.5626 68.9336 77.9134 68.2321C77.2334 67.4995 76.9088 66.6265 76.9088 65.582C76.9088 64.9897 77.0325 64.3817 77.2643 63.7893C77.4961 63.1814 77.8207 62.6514 78.2535 62.2149C79.1345 61.2951 80.1546 60.843 81.391 60.843C81.9784 60.843 82.5193 60.9833 82.9984 61.2328C83.4312 61.4822 83.8331 61.8251 84.1576 62.2772L84.745 63.0722L84.9768 61.0145L84.8532 60.8742C84.4977 60.4533 84.0649 60.126 83.5703 59.8765Z" fill="white"/>
<path d="M88.6708 63.3528C88.3307 63.3528 88.0216 63.4308 87.7589 63.5867L87.7743 63.4931H86.3988L85.5796 70.4925H86.9397L87.357 67.0162C87.4961 65.7223 87.7589 65.1923 87.9598 64.9741C88.1144 64.8026 88.2844 64.7091 88.4699 64.7091C88.5317 64.7091 88.609 64.7091 88.6553 64.7558L88.9954 65.0208L89.7991 63.7582L89.4281 63.5555C89.1963 63.4308 88.9335 63.3528 88.6708 63.3528Z" fill="white"/>
<path d="M93.5085 63.3528C92.5657 63.3528 91.762 63.6958 91.1128 64.3661C90.3864 65.13 90.0155 66.1276 90.0155 67.3124C90.0155 68.2789 90.2937 69.0739 90.8501 69.6975C91.4065 70.3366 92.1638 70.6484 93.1066 70.6484C93.8022 70.6484 94.4049 70.4769 94.8995 70.1184C95.3632 69.8066 95.7651 69.3389 96.0742 68.7466L96.2442 68.4348L95.1159 67.6709L94.915 68.0918C94.7604 68.4348 94.5441 68.6998 94.2658 68.918C93.9413 69.1675 93.5549 69.2766 93.0912 69.2766C92.5966 69.2766 92.1947 69.1207 91.8856 68.7933C91.7002 68.6063 91.561 68.3568 91.4683 68.0607C91.4065 67.858 91.3756 67.6709 91.3756 67.4527H96.4451L96.476 67.0942C96.5688 65.8159 96.2906 64.8494 95.6414 64.1791C95.085 63.6334 94.374 63.3528 93.5085 63.3528ZM91.6538 66.0965C91.762 65.8159 91.9165 65.5665 92.102 65.3482C92.4884 64.9273 92.9366 64.7247 93.5085 64.7247C93.9876 64.7247 94.3431 64.865 94.6213 65.1767C94.8532 65.4262 95.0077 65.7379 95.0695 66.0965H91.6538Z" fill="white"/>
<path d="M103.261 64.0855C103.168 63.992 103.06 63.914 102.952 63.8361C102.504 63.5087 101.947 63.3528 101.298 63.3528C100.294 63.3528 99.4745 63.6802 98.8408 64.3194C98.0989 65.0676 97.728 66.0653 97.728 67.2968C97.728 68.3568 98.0525 69.2142 98.7017 69.8378C99.2581 70.3834 99.9845 70.664 100.85 70.664C101.406 70.664 101.932 70.5393 102.396 70.3054C102.457 70.2743 102.504 70.2431 102.566 70.2119L102.535 70.5081H103.91L104.73 63.5087H103.369L103.261 64.0855ZM102.983 66.7356C102.983 67.1097 102.906 67.5151 102.767 67.9359C102.628 68.3413 102.396 68.653 102.071 68.918C101.747 69.1675 101.36 69.2922 100.912 69.2922C100.402 69.2922 100 69.1363 99.6909 68.8245C99.3045 68.4348 99.119 67.9204 99.119 67.25C99.119 66.4082 99.3508 65.7691 99.7991 65.2859C100.155 64.9117 100.603 64.7247 101.175 64.7247C101.747 64.7247 102.179 64.8805 102.488 65.2235C102.813 65.582 102.983 66.0809 102.983 66.7356Z" fill="white"/>
<path d="M108.315 61.264H106.94L106.677 63.4931H106.028L105.858 64.865H106.522L105.873 70.4925H107.233L107.883 64.865H108.903L109.073 63.4931H108.053L108.315 61.264Z" fill="white"/>
<path d="M111.036 60.8586C110.773 60.8586 110.556 60.9522 110.371 61.1392C110.232 61.2795 110.062 61.5134 110.062 61.9187C110.062 62.2305 110.185 62.4175 110.294 62.5266C110.448 62.6981 110.665 62.7917 110.912 62.7917C111.175 62.7917 111.422 62.6825 111.607 62.4799C111.793 62.2928 111.886 62.0278 111.886 61.7472C111.886 61.4978 111.808 61.2951 111.654 61.1237C111.484 60.9522 111.267 60.8586 111.036 60.8586Z" fill="white"/>
<path d="M109.274 70.4925H110.649L111.453 63.4931H110.093L109.274 70.4925Z" fill="white"/>
<path d="M116.059 63.3528C115.549 63.3528 115.1 63.4776 114.745 63.7114L114.776 63.4931H113.4L112.581 70.4925H113.941L114.359 66.9227C114.498 65.8003 114.776 65.3014 114.992 65.0988C115.24 64.8494 115.549 64.7247 115.935 64.7247C116.26 64.7247 116.491 64.8026 116.646 64.9741C116.785 65.13 116.862 65.3482 116.862 65.6444C116.862 65.6756 116.862 65.8003 116.785 66.4238L116.321 70.4925H117.682L118.145 66.5953C118.238 65.582 118.238 65.5041 118.238 65.4573C118.238 64.8494 118.053 64.3349 117.682 63.9452C117.295 63.5555 116.754 63.3528 116.059 63.3528Z" fill="white"/>
<path d="M125.24 64.0388C125.162 63.9764 125.1 63.914 125.023 63.8517L125.008 63.8361C124.513 63.5087 123.91 63.3373 123.184 63.3373C122.148 63.3373 121.298 63.6958 120.68 64.3973C119.969 65.1456 119.614 66.1277 119.614 67.2812C119.614 68.2633 119.907 69.0739 120.464 69.7287C121.005 70.3366 121.777 70.6484 122.736 70.6484C123.277 70.6484 123.802 70.5081 124.297 70.2587C124.389 70.2119 124.467 70.1651 124.544 70.1184C124.405 71.0537 124.158 71.7084 123.833 72.067C123.478 72.4411 122.983 72.6282 122.334 72.6282C121.731 72.6282 121.283 72.4723 120.989 72.1293C120.726 71.8332 120.587 71.4434 120.572 70.9134L120.556 70.5237H119.165V70.929C119.181 71.8332 119.459 72.5814 120.015 73.127C120.556 73.6882 121.298 73.9844 122.257 73.9844C123.354 73.9844 124.219 73.6259 124.853 72.9244C125.41 72.3164 125.75 71.3499 125.92 69.9469L126.662 63.4776H125.301L125.24 64.0388ZM124.451 65.2235C124.791 65.5665 124.961 66.0497 124.961 66.6888C124.961 67.5306 124.745 68.201 124.281 68.6998C123.91 69.0895 123.447 69.2922 122.875 69.2922C122.287 69.2922 121.855 69.1207 121.546 68.7778C121.19 68.3724 121.02 67.8892 121.02 67.2968C121.02 66.4394 121.252 65.7847 121.747 65.3014C122.133 64.9117 122.612 64.7247 123.199 64.7247C123.725 64.7247 124.127 64.8805 124.451 65.2235Z" fill="white"/>
<path d="M135.781 63.3528C135.147 63.3528 134.59 63.4931 134.111 63.7893C134.049 63.8205 134.003 63.8517 133.957 63.8829L134.003 63.4776H132.627L131.422 73.9844H132.782L133.246 69.9313C133.338 70.0093 133.431 70.0716 133.524 70.1496C134.034 70.4925 134.606 70.6484 135.255 70.6484C136.213 70.6484 137.032 70.3054 137.666 69.6351C138.408 68.8869 138.779 67.858 138.779 66.5797C138.779 65.6132 138.501 64.8338 137.96 64.2414C137.419 63.649 136.677 63.3528 135.781 63.3528ZM134.08 68.8401C133.709 68.4504 133.539 67.9671 133.539 67.3436C133.539 66.5018 133.771 65.8471 134.235 65.3482C134.637 64.9273 135.116 64.7247 135.719 64.7247C136.182 64.7247 136.553 64.8805 136.862 65.1923C137.218 65.5509 137.403 66.0497 137.403 66.6888C137.403 67.6242 137.172 68.3101 136.677 68.7933C136.321 69.1363 135.858 69.2922 135.255 69.2922C134.76 69.2922 134.389 69.1363 134.08 68.8401Z" fill="white"/>
<path d="M143.416 63.3528C142.921 63.3528 142.473 63.4776 142.102 63.7114L142.705 58.5983H141.345L139.954 70.4925H141.314L141.731 66.9227C141.824 66.0965 142.04 65.4885 142.38 65.1456C142.643 64.865 142.952 64.7402 143.338 64.7402C143.632 64.7402 143.833 64.8182 144.003 64.9897C144.189 65.1923 144.266 65.5976 144.204 66.1588L143.694 70.5081H145.054L145.564 66.2368C145.672 65.1923 145.487 64.4285 145.008 63.9452C144.606 63.5555 144.065 63.3528 143.416 63.3528Z" fill="white"/>
<path d="M151.808 63.4931L149.335 68.4036L147.713 63.4931H146.244L148.423 70.1652L146.43 74H147.975L153.385 63.4931H151.808Z" fill="white"/>
<path d="M156.074 64.7247C156.229 64.7247 156.368 64.7714 156.492 64.8494C156.584 64.9273 156.646 65.0208 156.677 65.1456L156.816 65.5976L158.037 64.9585L157.944 64.6467C157.836 64.257 157.62 63.9452 157.295 63.7114C156.971 63.4776 156.584 63.3684 156.105 63.3684C155.471 63.3684 154.93 63.6023 154.529 64.0388C154.173 64.4129 153.988 64.8961 153.988 65.4573C153.988 65.9094 154.142 66.3147 154.436 66.6265C154.668 66.8759 154.992 67.1098 155.425 67.2812L155.765 67.4371C156.151 67.6086 156.291 67.7333 156.352 67.7957C156.461 67.9204 156.522 68.0607 156.522 68.2633C156.522 68.5595 156.43 68.8089 156.213 69.0428C156.012 69.2298 155.75 69.3234 155.41 69.3234C155.131 69.3234 154.93 69.2454 154.76 69.0583C154.621 68.9025 154.513 68.6842 154.467 68.4036L154.39 67.9515L153.045 68.3724L153.107 68.7154C153.199 69.2454 153.4 69.6975 153.725 70.0404C154.142 70.4769 154.683 70.6952 155.363 70.6952C156.151 70.6952 156.801 70.4302 157.28 69.9001C157.697 69.4325 157.898 68.8557 157.898 68.1854C157.898 67.6398 157.728 67.1721 157.403 66.8136C157.187 66.5797 156.862 66.3771 156.414 66.1744L155.966 65.9718C155.672 65.8471 155.549 65.7379 155.487 65.6912C155.394 65.5976 155.363 65.4885 155.363 65.3638C155.363 65.1923 155.41 65.0676 155.518 64.9585C155.672 64.787 155.842 64.7247 156.074 64.7247Z" fill="white"/>
<path d="M158.98 70.4925H160.356L161.159 63.4931H159.799L158.98 70.4925Z" fill="white"/>
<path d="M160.742 60.8586C160.479 60.8586 160.263 60.9522 160.077 61.1392C159.938 61.2795 159.768 61.5134 159.768 61.9187C159.768 62.2305 159.892 62.4175 160 62.5266C160.155 62.6981 160.371 62.7917 160.618 62.7917C160.881 62.7917 161.128 62.6825 161.314 62.4799C161.499 62.2928 161.592 62.0278 161.592 61.7472C161.592 61.4978 161.515 61.2951 161.36 61.1237C161.19 60.9522 160.974 60.8586 160.742 60.8586Z" fill="white"/>
<path d="M167.883 64.0232C167.79 63.9452 167.697 63.8673 167.604 63.8049C167.172 63.5087 166.631 63.3528 166.012 63.3528C164.977 63.3528 164.127 63.6958 163.478 64.3661C162.72 65.1611 162.349 66.19 162.349 67.4059C162.349 68.3724 162.628 69.1519 163.153 69.7442C163.679 70.3522 164.405 70.6484 165.317 70.6484C165.889 70.6484 166.414 70.5393 166.862 70.3054C166.971 70.2431 167.079 70.1807 167.187 70.1184L166.739 73.9844H168.099L169.32 63.4776H167.96L167.883 64.0232ZM165.92 64.7247C166.414 64.7247 166.801 64.8805 167.094 65.1923C167.434 65.5509 167.589 66.0185 167.589 66.6421C167.589 67.5618 167.342 68.2477 166.816 68.7622C166.43 69.1207 165.966 69.2922 165.41 69.2922C164.915 69.2922 164.544 69.1519 164.25 68.8557C163.895 68.4971 163.709 68.0139 163.709 67.3748C163.709 66.5485 163.926 65.8938 164.389 65.395C164.807 64.9429 165.301 64.7247 165.92 64.7247Z" fill="white"/>
<path d="M174.436 67.593C174.343 68.4036 174.158 68.7777 174.019 68.9492C173.802 69.1831 173.508 69.3078 173.107 69.3078C172.798 69.3078 172.55 69.2298 172.365 69.0583C172.071 68.7622 172.071 68.1542 172.117 67.7021L172.597 63.5243H171.236L170.757 67.6554C170.634 68.6842 170.819 69.4792 171.314 70.0093C171.731 70.4613 172.334 70.6952 173.076 70.6952C173.926 70.6952 174.59 70.4302 175.054 69.9001C175.379 69.5104 175.611 68.8401 175.734 67.8892L176.275 63.5399H174.9L174.436 67.593Z" fill="white"/>
<path d="M180.927 63.3528C179.985 63.3528 179.181 63.6958 178.532 64.3661C177.805 65.13 177.434 66.1276 177.434 67.3124C177.434 68.2789 177.713 69.0739 178.269 69.6975C178.825 70.3366 179.583 70.6484 180.526 70.6484C181.221 70.6484 181.824 70.4769 182.318 70.1184C182.782 69.8066 183.184 69.3389 183.493 68.7466L183.663 68.4348L182.535 67.6709L182.334 68.0918C182.179 68.4348 181.963 68.6998 181.685 68.918C181.36 69.1675 180.974 69.2766 180.51 69.2766C180.015 69.2766 179.614 69.1207 179.304 68.7933C179.119 68.6063 178.98 68.3568 178.887 68.0607C178.825 67.858 178.794 67.6709 178.794 67.4527H183.833L183.864 67.0942C183.957 65.8159 183.679 64.8494 183.029 64.1791C182.504 63.6334 181.793 63.3528 180.927 63.3528ZM179.073 66.0965C179.181 65.8159 179.335 65.5665 179.521 65.3482C179.907 64.9273 180.355 64.7247 180.927 64.7247C181.407 64.7247 181.762 64.865 182.04 65.1767C182.272 65.4262 182.427 65.7379 182.488 66.0965H179.073Z" fill="white"/>
<path d="M187.774 64.7247C187.929 64.7247 188.068 64.7714 188.192 64.8494C188.284 64.9273 188.346 65.0208 188.377 65.1456L188.516 65.5976L189.737 64.9585L189.645 64.6467C189.536 64.257 189.32 63.9452 188.995 63.7114C188.671 63.4776 188.284 63.3684 187.805 63.3684C187.172 63.3684 186.631 63.6023 186.229 64.0388C185.873 64.4129 185.688 64.8961 185.688 65.4573C185.688 65.9094 185.842 66.3147 186.136 66.6265C186.368 66.8759 186.692 67.1098 187.125 67.2812L187.465 67.4371C187.852 67.6086 187.991 67.7333 188.053 67.7957C188.161 67.9204 188.223 68.0607 188.223 68.2633C188.223 68.5595 188.13 68.8089 187.913 69.0428C187.713 69.2298 187.45 69.3234 187.11 69.3234C186.832 69.3234 186.631 69.2454 186.461 69.0583C186.321 68.9025 186.213 68.6842 186.167 68.4036L186.09 67.9515L184.745 68.3724L184.807 68.7154C184.9 69.2454 185.1 69.6975 185.425 70.0404C185.842 70.4769 186.383 70.6952 187.063 70.6952C187.852 70.6952 188.501 70.4302 188.98 69.9001C189.397 69.4325 189.598 68.8557 189.598 68.1854C189.598 67.6398 189.428 67.1721 189.104 66.8136C188.887 66.5797 188.563 66.3771 188.114 66.1744L187.666 65.9718C187.372 65.8471 187.249 65.7379 187.187 65.6912C187.094 65.5976 187.063 65.4885 187.063 65.3638C187.063 65.1923 187.11 65.0676 187.218 64.9585C187.373 64.787 187.543 64.7247 187.774 64.7247Z" fill="white"/>
<path d="M232.643 59.4089C231.638 59.4089 230.819 59.7518 230.201 60.4222C229.645 61.0301 229.32 61.8251 229.227 62.7916L229.196 63.2281H230.618L230.649 62.854C230.696 62.246 230.881 61.7472 231.236 61.3575C231.561 60.9989 232.009 60.8119 232.612 60.8119C233.168 60.8119 233.586 60.9678 233.895 61.2951C234.173 61.5913 234.312 61.9499 234.312 62.3863C234.312 62.932 234.142 63.4464 233.787 63.9608C233.57 64.2726 233.107 64.8026 232.427 65.5197L227.558 70.4925H234.791L234.961 69.0895H230.85L233.369 66.5018C234.235 65.6288 234.76 65.0208 234.992 64.6467C235.502 63.914 235.75 63.1346 235.75 62.3084C235.75 61.4666 235.456 60.7651 234.884 60.2195C234.312 59.6895 233.555 59.4089 232.643 59.4089Z" fill="white"/>
<path d="M241.267 59.4089C240.247 59.4089 239.335 59.8454 238.547 60.6872C237.944 61.3419 237.496 62.1525 237.202 63.1034C236.909 64.0388 236.754 65.0053 236.754 65.9562C236.754 66.72 236.862 67.4527 237.079 68.1074C237.295 68.7933 237.604 69.3389 238.006 69.7598C238.563 70.3522 239.274 70.6484 240.108 70.6484C241.144 70.6484 242.056 70.2587 242.782 69.4792C243.447 68.7933 243.941 67.936 244.219 66.9071C244.498 65.925 244.637 64.9741 244.637 64.1011C244.637 62.4799 244.235 61.2172 243.447 60.3442C242.875 59.7362 242.133 59.4089 241.267 59.4089ZM241.206 60.8119C241.685 60.8119 242.071 60.9833 242.38 61.3263C242.906 61.9343 243.184 62.854 243.184 64.0543C243.184 64.8182 243.06 65.66 242.813 66.533C242.581 67.3748 242.21 68.0607 241.7 68.5751C241.236 69.0428 240.726 69.261 240.108 69.261C239.66 69.261 239.305 69.1051 238.995 68.7933C238.439 68.2165 238.161 67.2656 238.161 65.9562C238.161 65.13 238.3 64.3038 238.547 63.4776C238.81 62.6825 239.165 62.0278 239.614 61.5445C240.108 61.0613 240.618 60.8119 241.206 60.8119Z" fill="white"/>
<path d="M249.845 59.4089C248.825 59.4089 247.913 59.8454 247.125 60.6872C246.522 61.3419 246.074 62.1525 245.781 63.1034C245.487 64.0388 245.332 65.0053 245.332 65.9562C245.332 66.72 245.441 67.4527 245.657 68.1074C245.873 68.7933 246.182 69.3389 246.584 69.7598C247.141 70.3522 247.852 70.6484 248.686 70.6484C249.722 70.6484 250.634 70.2587 251.36 69.4792C252.025 68.7933 252.519 67.936 252.798 66.9071C253.076 65.925 253.215 64.9741 253.215 64.1011C253.215 62.4799 252.813 61.2172 252.025 60.3442C251.453 59.7362 250.711 59.4089 249.845 59.4089ZM249.784 60.8119C250.263 60.8119 250.649 60.9833 250.958 61.3263C251.484 61.9343 251.762 62.854 251.762 64.0543C251.762 64.8182 251.638 65.66 251.391 66.533C251.159 67.3748 250.788 68.0607 250.278 68.5751C249.815 69.0428 249.305 69.261 248.686 69.261C248.238 69.261 247.883 69.1051 247.573 68.7933C247.017 68.2165 246.739 67.2656 246.739 65.9562C246.739 65.13 246.878 64.3038 247.125 63.4776C247.388 62.6825 247.743 62.0278 248.192 61.5445C248.671 61.0613 249.181 60.8119 249.784 60.8119Z" fill="white"/>
<path d="M259.892 64.865C260.17 64.6623 260.402 64.4129 260.603 64.1323C260.958 63.5867 261.144 62.9475 261.144 62.2149C261.144 61.3731 260.881 60.6872 260.355 60.1571C259.83 59.6427 259.165 59.3933 258.377 59.3933C257.434 59.3933 256.646 59.7362 256.028 60.4066C255.471 61.0301 255.193 61.8407 255.193 62.8072C255.193 63.3061 255.317 63.7737 255.564 64.1791C255.672 64.3661 255.796 64.5376 255.951 64.7091C255.595 64.9117 255.286 65.2079 255.039 65.5665C254.621 66.1744 254.405 66.8759 254.405 67.6865C254.405 68.4816 254.668 69.1831 255.209 69.7754C255.75 70.3678 256.507 70.664 257.434 70.664C258.47 70.664 259.304 70.3366 259.907 69.6663C260.525 68.996 260.835 68.123 260.835 67.0786C260.835 66.4082 260.68 65.8315 260.355 65.3638C260.216 65.1767 260.062 65.0053 259.892 64.865ZM256.275 68.7933C255.997 68.466 255.858 68.0763 255.858 67.6086C255.858 66.9383 256.043 66.4238 256.445 66.0341C256.77 65.6912 257.218 65.5353 257.79 65.5353C258.284 65.5353 258.655 65.6756 258.949 65.9562C259.243 66.2524 259.382 66.6265 259.382 67.1253C259.382 67.7957 259.212 68.3101 258.856 68.6998C258.516 69.0895 258.037 69.2766 257.403 69.2766C256.909 69.261 256.538 69.1051 256.275 68.7933ZM258.284 60.8119C258.702 60.8119 259.026 60.921 259.274 61.1704C259.552 61.4198 259.675 61.7784 259.675 62.246C259.675 62.854 259.505 63.3217 259.15 63.6802C258.841 63.992 258.47 64.1479 257.991 64.1479C257.589 64.1479 257.264 64.0232 257.017 63.7737C256.77 63.5087 256.646 63.1814 256.646 62.7605C256.646 62.1057 256.816 61.6069 257.172 61.2484C257.45 60.9522 257.821 60.8119 258.284 60.8119Z" fill="white"/>
<path d="M196.847 64.7402C197.002 64.7402 197.141 64.787 197.264 64.865C197.357 64.9429 197.419 65.0364 197.45 65.1611L197.589 65.6132L198.81 64.9741L198.717 64.6623C198.609 64.2726 198.393 63.9608 198.068 63.727C197.743 63.4931 197.357 63.384 196.878 63.384C196.244 63.384 195.703 63.6179 195.301 64.0543C194.946 64.4285 194.76 64.9117 194.76 65.4729C194.76 65.925 194.915 66.3303 195.209 66.6421C195.441 66.8915 195.765 67.1253 196.198 67.2968L196.538 67.4527C196.924 67.6242 197.063 67.7489 197.125 67.8112C197.233 67.936 197.295 68.0763 197.295 68.2789C197.295 68.5751 197.202 68.8245 196.986 69.0583C196.785 69.2454 196.522 69.3389 196.182 69.3389C195.904 69.3389 195.703 69.261 195.533 69.0739C195.394 68.918 195.286 68.6998 195.24 68.4192L195.162 67.9671L193.818 68.388L193.879 68.731C193.972 69.261 194.173 69.7131 194.498 70.056C194.915 70.4925 195.456 70.7108 196.136 70.7108C196.924 70.7108 197.573 70.4457 198.053 69.9157C198.47 69.4481 198.671 68.8713 198.671 68.201C198.671 67.6554 198.501 67.1877 198.176 66.8291C197.96 66.5953 197.635 66.3927 197.187 66.19L196.739 65.9874C196.445 65.8626 196.321 65.7535 196.26 65.7068C196.167 65.6132 196.136 65.5041 196.136 65.3794C196.136 65.2079 196.182 65.0832 196.291 64.9741C196.43 64.8182 196.615 64.7402 196.847 64.7402Z" fill="white"/>
<path d="M201.515 60.9989C201.252 60.9989 201.036 61.0925 200.85 61.2795C200.711 61.4198 200.541 61.6537 200.541 62.059C200.541 62.3708 200.665 62.5578 200.773 62.6669C200.927 62.8384 201.144 62.932 201.391 62.932C201.654 62.932 201.901 62.8228 202.087 62.6202C202.272 62.4331 202.365 62.1681 202.365 61.8875C202.365 61.6381 202.287 61.4354 202.133 61.264C201.963 61.0925 201.747 60.9989 201.515 60.9989Z" fill="white"/>
<path d="M199.753 70.6328H201.128L201.932 63.6335H200.572L199.753 70.6328Z" fill="white"/>
<path d="M206.43 63.5087C205.92 63.5087 205.471 63.6334 205.116 63.8673L205.147 63.649H203.771L202.952 70.6484H204.312L204.73 67.0786C204.869 65.9562 205.147 65.4573 205.363 65.2547C205.611 65.0053 205.92 64.8806 206.306 64.8806C206.631 64.8806 206.862 64.9585 207.017 65.13C207.156 65.2859 207.233 65.5041 207.233 65.8003C207.233 65.8159 207.233 65.9406 207.156 66.5797L206.692 70.6484H208.053L208.516 66.7512C208.609 65.7223 208.609 65.66 208.609 65.6132C208.609 65.0053 208.423 64.4908 208.053 64.1011C207.666 63.7114 207.125 63.5087 206.43 63.5087Z" fill="white"/>
<path d="M219.784 63.197C218.841 63.197 218.037 63.5399 217.388 64.2102C216.662 64.9741 216.291 65.9718 216.291 67.1565C216.291 68.123 216.569 68.918 217.125 69.5416C217.682 70.1807 218.439 70.4925 219.382 70.4925C220.077 70.4925 220.68 70.321 221.175 69.9625C221.638 69.6507 222.04 69.1831 222.349 68.5907L222.519 68.2789L221.391 67.5151L221.19 67.936C221.036 68.2789 220.819 68.5439 220.541 68.7622C220.216 69.0116 219.83 69.1207 219.366 69.1207C218.872 69.1207 218.47 68.9648 218.161 68.6374C217.975 68.4504 217.836 68.201 217.743 67.9048C217.682 67.7021 217.651 67.5151 217.651 67.2968H222.689L222.72 66.9383C222.813 65.66 222.535 64.6935 221.886 64.0232C221.376 63.4776 220.649 63.197 219.784 63.197ZM217.929 65.9406C218.037 65.66 218.192 65.4106 218.377 65.1923C218.764 64.7714 219.212 64.5688 219.784 64.5688C220.263 64.5688 220.618 64.7091 220.896 65.0209C221.128 65.2703 221.283 65.582 221.345 65.9406H217.929Z" fill="white"/>
<path d="M210.696 67.0162C210.696 66.985 210.696 66.9539 210.711 66.9227C210.726 66.798 210.742 66.6889 210.773 66.5797V66.5641C210.866 66.0809 211.051 65.6756 211.36 65.3482C211.747 64.9273 212.195 64.7247 212.767 64.7247C213.246 64.7247 213.601 64.865 213.879 65.1767C214.111 65.4417 214.266 65.7379 214.328 66.1121L214.389 66.4394H215.765L215.703 65.9874C215.611 65.2547 215.332 64.6467 214.884 64.1946C214.343 63.649 213.617 63.3684 212.751 63.3684C211.808 63.3684 211.005 63.7114 210.355 64.3817C209.629 65.1456 209.258 66.1432 209.258 67.328C209.258 68.2945 209.536 69.0895 210.093 69.7131C210.649 70.3522 211.406 70.664 212.349 70.664C213.045 70.664 213.648 70.4925 214.142 70.134C214.606 69.8222 215.008 69.3545 215.317 68.7622L215.487 68.4504L214.359 67.6865L214.158 68.1074C214.003 68.4504 213.787 68.7154 213.509 68.9336C213.184 69.1831 212.798 69.2922 212.334 69.2922C211.839 69.2922 211.437 69.1363 211.128 68.8089C210.943 68.6219 210.804 68.3724 210.711 68.0763C210.618 67.7957 210.618 67.4995 210.649 67.1253L210.696 67.0162Z" fill="white"/>
</svg>
